<svg xmlns="http://www.w3.org/2000/svg" xmlns:xlink="http://www.w3.org/1999/xlink" width="500" zoomAndPan="magnify" viewBox="0 0 375 149.999998" height="200" preserveAspectRatio="xMidYMid meet" version="1.0"><defs><g/><clipPath id="2fa682d762"><path d="M 0 20.40625 L 86 20.40625 L 86 98 L 0 98 Z M 0 20.40625 " clip-rule="nonzero"/></clipPath><clipPath id="941c58e383"><path d="M 10 26 L 109.5 26 L 109.5 125 L 10 125 Z M 10 26 " clip-rule="nonzero"/></clipPath></defs><g clip-path="url(#2fa682d762)"><path fill="#69a820" d="M 24.039062 50.339844 C 25.621094 45.441406 27.835938 40.941406 30.699219 36.855469 C 37.023438 27.675781 44.5625 23.082031 53.285156 23.082031 C 60.742188 23.082031 67.253906 25.949219 72.828125 31.683594 C 77.003906 31.242188 81.175781 30.828125 85.316406 30.207031 C 76.203125 23.757812 65.871094 20.539062 54.324219 20.539062 C 38.644531 20.539062 25.175781 26.484375 13.898438 38.375 C 4.640625 48.179688 0 59.339844 0 71.84375 C 0 77.867188 1.140625 83.742188 3.421875 89.460938 C 4.476562 92.09375 5.734375 94.628906 7.210938 97.027344 C 8.257812 85.601562 11.089844 74.539062 15.6875 63.796875 C 17.902344 58.636719 20.691406 54.152344 24.039062 50.339844 Z M 24.039062 50.339844 " fill-opacity="1" fill-rule="nonzero"/></g><path fill="#69a820" d="M 89.121094 81.027344 C 88.21875 81.933594 87.296875 82.800781 86.355469 83.636719 C 85.925781 86.003906 85.359375 88.398438 84.667969 90.828125 C 82.820312 97.34375 80.386719 102.765625 77.375 107.078125 C 74.515625 111.25 71.117188 114.484375 67.179688 116.808594 C 63.242188 119.113281 59.1875 120.269531 55.015625 120.269531 C 45.199219 120.269531 36.902344 115.066406 30.109375 104.65625 C 29.523438 103.738281 28.960938 102.808594 28.433594 101.863281 C 28.433594 101.863281 28.429688 101.863281 28.414062 101.867188 C 27.964844 102.050781 21.433594 104.847656 20.195312 111.492188 C 21.085938 112.199219 21.984375 112.863281 22.910156 113.5 C 31.902344 119.714844 42.378906 122.824219 54.320312 122.824219 C 70.84375 122.824219 84.515625 116.875 95.324219 104.988281 C 104.128906 95.328125 108.523438 84.328125 108.523438 71.976562 C 108.523438 65.847656 107.417969 60.035156 105.191406 54.539062 C 101.894531 64.523438 96.65625 73.453125 89.121094 81.027344 Z M 89.121094 81.027344 " fill-opacity="1" fill-rule="nonzero"/><g clip-path="url(#941c58e383)"><path fill="#69a820" d="M 108.722656 26.734375 C 107.894531 26.042969 107.09375 26.375 106.207031 26.738281 C 102.761719 28.160156 99.355469 29.753906 95.804688 30.855469 C 87.097656 33.554688 78.019531 34.195312 69.015625 35.207031 C 62.394531 35.949219 55.8125 36.828125 49.363281 38.582031 C 35.078125 42.453125 24.800781 50.921875 18.921875 64.65625 C 13.226562 77.960938 10.441406 91.816406 10.640625 106.296875 C 10.886719 109.855469 10.996094 113.421875 11.425781 116.957031 C 11.691406 119.191406 12.367188 121.390625 12.992188 123.566406 C 13.257812 124.457031 14.078125 124.933594 15.066406 124.546875 C 15.984375 124.191406 16.21875 123.457031 15.957031 122.542969 C 14.453125 117.234375 14.238281 111.957031 14.835938 106.679688 C 15.121094 104.070312 15.613281 101.46875 16.25 98.859375 C 17.550781 93.53125 19.558594 88.769531 22.339844 84.632812 C 26.234375 78.820312 31.632812 74.238281 38.710938 71.046875 C 43.191406 69.023438 47.949219 67.609375 52.605469 65.980469 C 53.109375 65.804688 53.746094 66.015625 54.324219 66.046875 C 53.898438 66.441406 53.546875 66.972656 53.046875 67.203125 C 48.019531 69.621094 42.792969 71.664062 38.273438 75.035156 C 31.378906 80.191406 26.101562 86.625 23.457031 94.949219 C 23.015625 96.347656 22.941406 97.914062 23 99.390625 C 23.066406 100.988281 24.203125 101.710938 25.785156 101.429688 C 26.246094 101.347656 26.675781 101.148438 27.136719 101.023438 C 30.597656 100.042969 34.011719 98.78125 37.542969 98.167969 C 44.734375 96.921875 51.992188 96.109375 59.199219 94.96875 C 70.035156 93.261719 79.277344 88.382812 87 80.621094 C 94.746094 72.828125 99.875 63.480469 102.859375 52.984375 C 105.101562 45.097656 107.054688 37.125 109.15625 29.210938 C 109.40625 28.28125 109.546875 27.429688 108.722656 26.734375 Z M 108.722656 26.734375 " fill-opacity="1" fill-rule="nonzero"/></g><g fill="#69a820" fill-opacity="0.4"><g transform="translate(109.575318, 108.375711)"><g><path d="M 28.125 -44.140625 L 32.03125 -44.140625 L 32.03125 -32.921875 L 26.90625 -32.921875 C 23.539062 -32.921875 21.140625 -32.132812 19.703125 -30.5625 C 18.273438 -28.988281 17.5625 -26.414062 17.5625 -22.84375 L 17.5625 0 L 5.6875 0 L 5.6875 -43.890625 L 13.328125 -43.890625 L 15.4375 -38.53125 C 18.414062 -42.269531 22.644531 -44.140625 28.125 -44.140625 Z M 28.125 -44.140625 "/></g></g></g><g fill="#69a820" fill-opacity="0.4"><g transform="translate(138.019395, 108.375711)"><g><path d="M 41.125 -43.890625 L 48.84375 -43.890625 L 48.84375 -5.125 C 48.84375 -0.519531 47.9375 3.429688 46.125 6.734375 C 44.3125 10.046875 41.722656 12.59375 38.359375 14.375 C 35.003906 16.164062 31.023438 17.0625 26.421875 17.0625 C 20.453125 17.0625 15.476562 15.625 11.5 12.75 C 7.519531 9.882812 5.039062 5.957031 4.0625 0.96875 L 15.84375 0.96875 C 16.5 2.925781 17.84375 4.40625 19.875 5.40625 C 21.90625 6.40625 24.003906 6.90625 26.171875 6.90625 C 29.203125 6.90625 31.785156 6 33.921875 4.1875 C 36.066406 2.375 37.140625 -0.15625 37.140625 -3.40625 L 37.140625 -5.046875 C 35.410156 -3.796875 33.488281 -2.832031 31.375 -2.15625 C 29.257812 -1.476562 27.007812 -1.140625 24.625 -1.140625 C 20.5625 -1.140625 16.875 -2.113281 13.5625 -4.0625 C 10.257812 -6.007812 7.644531 -8.632812 5.71875 -11.9375 C 3.800781 -15.25 2.84375 -18.960938 2.84375 -23.078125 C 2.84375 -27.203125 3.800781 -30.929688 5.71875 -34.265625 C 7.644531 -37.597656 10.257812 -40.238281 13.5625 -42.1875 C 16.875 -44.132812 20.5625 -45.109375 24.625 -45.109375 C 27.5 -45.109375 30.179688 -44.617188 32.671875 -43.640625 C 35.160156 -42.671875 37.359375 -41.289062 39.265625 -39.5 Z M 26.015625 -11.703125 C 29.265625 -11.703125 31.945312 -12.769531 34.0625 -14.90625 C 36.175781 -17.050781 37.234375 -19.773438 37.234375 -23.078125 C 37.234375 -26.328125 36.1875 -29.019531 34.09375 -31.15625 C 32.007812 -33.300781 29.316406 -34.375 26.015625 -34.375 C 22.816406 -34.375 20.160156 -33.300781 18.046875 -31.15625 C 15.929688 -29.019531 14.875 -26.328125 14.875 -23.078125 C 14.875 -19.773438 15.914062 -17.050781 18 -14.90625 C 20.09375 -12.769531 22.765625 -11.703125 26.015625 -11.703125 Z M 26.015625 -11.703125 "/></g></g></g><g fill="#69a820" fill-opacity="0.4"><g transform="translate(187.918972, 108.375711)"><g><path d="M 41.53125 -43.96875 L 50.390625 -43.96875 L 50.390625 -0.078125 L 41.046875 -0.078125 L 40.078125 -3.984375 C 38.179688 -2.359375 36.023438 -1.082031 33.609375 -0.15625 C 31.203125 0.757812 28.613281 1.21875 25.84375 1.21875 C 21.457031 1.21875 17.53125 0.203125 14.0625 -1.828125 C 10.59375 -3.859375 7.851562 -6.617188 5.84375 -10.109375 C 3.84375 -13.609375 2.84375 -17.582031 2.84375 -22.03125 C 2.84375 -26.414062 3.84375 -30.351562 5.84375 -33.84375 C 7.851562 -37.34375 10.59375 -40.09375 14.0625 -42.09375 C 17.53125 -44.101562 21.457031 -45.109375 25.84375 -45.109375 C 28.664062 -45.109375 31.296875 -44.632812 33.734375 -43.6875 C 36.171875 -42.738281 38.335938 -41.425781 40.234375 -39.75 Z M 26.828125 -10 C 29.097656 -10 31.140625 -10.515625 32.953125 -11.546875 C 34.773438 -12.578125 36.195312 -14 37.21875 -15.8125 C 38.25 -17.625 38.765625 -19.695312 38.765625 -22.03125 C 38.765625 -24.300781 38.25 -26.34375 37.21875 -28.15625 C 36.195312 -29.976562 34.773438 -31.414062 32.953125 -32.46875 C 31.140625 -33.53125 29.097656 -34.0625 26.828125 -34.0625 C 24.492188 -34.0625 22.429688 -33.53125 20.640625 -32.46875 C 18.859375 -31.414062 17.453125 -29.976562 16.421875 -28.15625 C 15.390625 -26.34375 14.875 -24.300781 14.875 -22.03125 C 14.875 -19.695312 15.390625 -17.632812 16.421875 -15.84375 C 17.453125 -14.0625 18.859375 -12.640625 20.640625 -11.578125 C 22.429688 -10.523438 24.492188 -10 26.828125 -10 Z M 26.828125 -10 "/></g></g></g><g fill="#69a820" fill-opacity="0.4"><g transform="translate(239.362686, 108.375711)"><g><path d="M 30.71875 -44.953125 C 35.707031 -44.953125 39.648438 -43.285156 42.546875 -39.953125 C 45.453125 -36.617188 46.90625 -32.160156 46.90625 -26.578125 L 46.90625 0 L 35.03125 0 L 35.03125 -24.703125 C 35.03125 -31.265625 32.484375 -34.546875 27.390625 -34.546875 C 24.359375 -34.546875 21.960938 -33.515625 20.203125 -31.453125 C 18.441406 -29.390625 17.5625 -26.597656 17.5625 -23.078125 L 17.5625 0 L 5.6875 0 L 5.6875 -43.890625 L 13.8125 -43.890625 L 16.171875 -38.453125 C 17.796875 -40.453125 19.878906 -42.035156 22.421875 -43.203125 C 24.972656 -44.367188 27.738281 -44.953125 30.71875 -44.953125 Z M 30.71875 -44.953125 "/></g></g></g><g fill="#69a820" fill-opacity="0.4"><g transform="translate(286.824128, 108.375711)"><g><path d="M 5.6875 -49.75 L 5.6875 -60.796875 L 17.5625 -60.796875 L 17.5625 -49.75 Z M 5.6875 0 L 5.6875 -43.890625 L 17.5625 -43.890625 L 17.5625 0 Z M 5.6875 0 "/></g></g></g><g fill="#69a820" fill-opacity="0.4"><g transform="translate(305.434437, 108.375711)"><g><path d="M 26.09375 1.21875 C 21.695312 1.21875 17.738281 0.191406 14.21875 -1.859375 C 10.695312 -3.921875 7.921875 -6.710938 5.890625 -10.234375 C 3.859375 -13.765625 2.84375 -17.722656 2.84375 -22.109375 C 2.84375 -26.492188 3.859375 -30.421875 5.890625 -33.890625 C 7.921875 -37.359375 10.695312 -40.09375 14.21875 -42.09375 C 17.738281 -44.101562 21.722656 -45.109375 26.171875 -45.109375 C 29.960938 -45.109375 33.414062 -44.363281 36.53125 -42.875 C 39.644531 -41.382812 42.242188 -39.285156 44.328125 -36.578125 C 46.421875 -33.867188 47.820312 -30.722656 48.53125 -27.140625 L 36.734375 -27.140625 C 35.765625 -29.316406 34.34375 -31 32.46875 -32.1875 C 30.601562 -33.375 28.476562 -33.96875 26.09375 -33.96875 C 23.976562 -33.96875 22.066406 -33.441406 20.359375 -32.390625 C 18.648438 -31.335938 17.304688 -29.914062 16.328125 -28.125 C 15.359375 -26.332031 14.875 -24.300781 14.875 -22.03125 C 14.875 -19.75 15.359375 -17.703125 16.328125 -15.890625 C 17.304688 -14.078125 18.648438 -12.628906 20.359375 -11.546875 C 22.066406 -10.460938 23.976562 -9.921875 26.09375 -9.921875 C 28.53125 -9.921875 30.65625 -10.554688 32.46875 -11.828125 C 34.28125 -13.097656 35.703125 -14.925781 36.734375 -17.3125 L 48.6875 -17.3125 C 47.976562 -13.625 46.566406 -10.382812 44.453125 -7.59375 C 42.347656 -4.800781 39.722656 -2.632812 36.578125 -1.09375 C 33.429688 0.445312 29.9375 1.21875 26.09375 1.21875 Z M 26.09375 1.21875 "/></g></g></g><g fill="#69a820" fill-opacity="1"><g transform="translate(109.575318, 108.375711)"><g><path d="M 28.125 -44.140625 L 32.03125 -44.140625 L 32.03125 -32.921875 L 26.90625 -32.921875 C 23.539062 -32.921875 21.140625 -32.132812 19.703125 -30.5625 C 18.273438 -28.988281 17.5625 -26.414062 17.5625 -22.84375 L 17.5625 0 L 5.6875 0 L 5.6875 -43.890625 L 13.328125 -43.890625 L 15.4375 -38.53125 C 18.414062 -42.269531 22.644531 -44.140625 28.125 -44.140625 Z M 28.125 -44.140625 "/></g></g></g><g fill="#69a820" fill-opacity="1"><g transform="translate(138.019395, 108.375711)"><g><path d="M 41.125 -43.890625 L 48.84375 -43.890625 L 48.84375 -5.125 C 48.84375 -0.519531 47.9375 3.429688 46.125 6.734375 C 44.3125 10.046875 41.722656 12.59375 38.359375 14.375 C 35.003906 16.164062 31.023438 17.0625 26.421875 17.0625 C 20.453125 17.0625 15.476562 15.625 11.5 12.75 C 7.519531 9.882812 5.039062 5.957031 4.0625 0.96875 L 15.84375 0.96875 C 16.5 2.925781 17.84375 4.40625 19.875 5.40625 C 21.90625 6.40625 24.003906 6.90625 26.171875 6.90625 C 29.203125 6.90625 31.785156 6 33.921875 4.1875 C 36.066406 2.375 37.140625 -0.15625 37.140625 -3.40625 L 37.140625 -5.046875 C 35.410156 -3.796875 33.488281 -2.832031 31.375 -2.15625 C 29.257812 -1.476562 27.007812 -1.140625 24.625 -1.140625 C 20.5625 -1.140625 16.875 -2.113281 13.5625 -4.0625 C 10.257812 -6.007812 7.644531 -8.632812 5.71875 -11.9375 C 3.800781 -15.25 2.84375 -18.960938 2.84375 -23.078125 C 2.84375 -27.203125 3.800781 -30.929688 5.71875 -34.265625 C 7.644531 -37.597656 10.257812 -40.238281 13.5625 -42.1875 C 16.875 -44.132812 20.5625 -45.109375 24.625 -45.109375 C 27.5 -45.109375 30.179688 -44.617188 32.671875 -43.640625 C 35.160156 -42.671875 37.359375 -41.289062 39.265625 -39.5 Z M 26.015625 -11.703125 C 29.265625 -11.703125 31.945312 -12.769531 34.0625 -14.90625 C 36.175781 -17.050781 37.234375 -19.773438 37.234375 -23.078125 C 37.234375 -26.328125 36.1875 -29.019531 34.09375 -31.15625 C 32.007812 -33.300781 29.316406 -34.375 26.015625 -34.375 C 22.816406 -34.375 20.160156 -33.300781 18.046875 -31.15625 C 15.929688 -29.019531 14.875 -26.328125 14.875 -23.078125 C 14.875 -19.773438 15.914062 -17.050781 18 -14.90625 C 20.09375 -12.769531 22.765625 -11.703125 26.015625 -11.703125 Z M 26.015625 -11.703125 "/></g></g></g><g fill="#69a820" fill-opacity="1"><g transform="translate(187.918972, 108.375711)"><g><path d="M 41.53125 -43.96875 L 50.390625 -43.96875 L 50.390625 -0.078125 L 41.046875 -0.078125 L 40.078125 -3.984375 C 38.179688 -2.359375 36.023438 -1.082031 33.609375 -0.15625 C 31.203125 0.757812 28.613281 1.21875 25.84375 1.21875 C 21.457031 1.21875 17.53125 0.203125 14.0625 -1.828125 C 10.59375 -3.859375 7.851562 -6.617188 5.84375 -10.109375 C 3.84375 -13.609375 2.84375 -17.582031 2.84375 -22.03125 C 2.84375 -26.414062 3.84375 -30.351562 5.84375 -33.84375 C 7.851562 -37.34375 10.59375 -40.09375 14.0625 -42.09375 C 17.53125 -44.101562 21.457031 -45.109375 25.84375 -45.109375 C 28.664062 -45.109375 31.296875 -44.632812 33.734375 -43.6875 C 36.171875 -42.738281 38.335938 -41.425781 40.234375 -39.75 Z M 26.828125 -10 C 29.097656 -10 31.140625 -10.515625 32.953125 -11.546875 C 34.773438 -12.578125 36.195312 -14 37.21875 -15.8125 C 38.25 -17.625 38.765625 -19.695312 38.765625 -22.03125 C 38.765625 -24.300781 38.25 -26.34375 37.21875 -28.15625 C 36.195312 -29.976562 34.773438 -31.414062 32.953125 -32.46875 C 31.140625 -33.53125 29.097656 -34.0625 26.828125 -34.0625 C 24.492188 -34.0625 22.429688 -33.53125 20.640625 -32.46875 C 18.859375 -31.414062 17.453125 -29.976562 16.421875 -28.15625 C 15.390625 -26.34375 14.875 -24.300781 14.875 -22.03125 C 14.875 -19.695312 15.390625 -17.632812 16.421875 -15.84375 C 17.453125 -14.0625 18.859375 -12.640625 20.640625 -11.578125 C 22.429688 -10.523438 24.492188 -10 26.828125 -10 Z M 26.828125 -10 "/></g></g></g><g fill="#69a820" fill-opacity="1"><g transform="translate(239.362686, 108.375711)"><g><path d="M 30.71875 -44.953125 C 35.707031 -44.953125 39.648438 -43.285156 42.546875 -39.953125 C 45.453125 -36.617188 46.90625 -32.160156 46.90625 -26.578125 L 46.90625 0 L 35.03125 0 L 35.03125 -24.703125 C 35.03125 -31.265625 32.484375 -34.546875 27.390625 -34.546875 C 24.359375 -34.546875 21.960938 -33.515625 20.203125 -31.453125 C 18.441406 -29.390625 17.5625 -26.597656 17.5625 -23.078125 L 17.5625 0 L 5.6875 0 L 5.6875 -43.890625 L 13.8125 -43.890625 L 16.171875 -38.453125 C 17.796875 -40.453125 19.878906 -42.035156 22.421875 -43.203125 C 24.972656 -44.367188 27.738281 -44.953125 30.71875 -44.953125 Z M 30.71875 -44.953125 "/></g></g></g><g fill="#69a820" fill-opacity="1"><g transform="translate(286.824128, 108.375711)"><g><path d="M 5.6875 -49.75 L 5.6875 -60.796875 L 17.5625 -60.796875 L 17.5625 -49.75 Z M 5.6875 0 L 5.6875 -43.890625 L 17.5625 -43.890625 L 17.5625 0 Z M 5.6875 0 "/></g></g></g><g fill="#69a820" fill-opacity="1"><g transform="translate(305.434437, 108.375711)"><g><path d="M 26.09375 1.21875 C 21.695312 1.21875 17.738281 0.191406 14.21875 -1.859375 C 10.695312 -3.921875 7.921875 -6.710938 5.890625 -10.234375 C 3.859375 -13.765625 2.84375 -17.722656 2.84375 -22.109375 C 2.84375 -26.492188 3.859375 -30.421875 5.890625 -33.890625 C 7.921875 -37.359375 10.695312 -40.09375 14.21875 -42.09375 C 17.738281 -44.101562 21.722656 -45.109375 26.171875 -45.109375 C 29.960938 -45.109375 33.414062 -44.363281 36.53125 -42.875 C 39.644531 -41.382812 42.242188 -39.285156 44.328125 -36.578125 C 46.421875 -33.867188 47.820312 -30.722656 48.53125 -27.140625 L 36.734375 -27.140625 C 35.765625 -29.316406 34.34375 -31 32.46875 -32.1875 C 30.601562 -33.375 28.476562 -33.96875 26.09375 -33.96875 C 23.976562 -33.96875 22.066406 -33.441406 20.359375 -32.390625 C 18.648438 -31.335938 17.304688 -29.914062 16.328125 -28.125 C 15.359375 -26.332031 14.875 -24.300781 14.875 -22.03125 C 14.875 -19.75 15.359375 -17.703125 16.328125 -15.890625 C 17.304688 -14.078125 18.648438 -12.628906 20.359375 -11.546875 C 22.066406 -10.460938 23.976562 -9.921875 26.09375 -9.921875 C 28.53125 -9.921875 30.65625 -10.554688 32.46875 -11.828125 C 34.28125 -13.097656 35.703125 -14.925781 36.734375 -17.3125 L 48.6875 -17.3125 C 47.976562 -13.625 46.566406 -10.382812 44.453125 -7.59375 C 42.347656 -4.800781 39.722656 -2.632812 36.578125 -1.09375 C 33.429688 0.445312 29.9375 1.21875 26.09375 1.21875 Z M 26.09375 1.21875 "/></g></g></g><g fill="#272727" fill-opacity="1"><g transform="translate(194.59916, 128.950305)"><g><path d="M 0.765625 0 L 0.765625 -1.46875 L 2.515625 -1.46875 C 3.492188 -1.46875 4.171875 -1.707031 4.546875 -2.1875 C 4.921875 -2.664062 5.109375 -3.3125 5.109375 -4.125 L 5.109375 -12.234375 L 6.640625 -12.234375 L 6.640625 -4.03125 C 6.640625 -2.820312 6.304688 -1.847656 5.640625 -1.109375 C 4.972656 -0.367188 3.929688 0 2.515625 0 Z M 0.765625 0 "/></g></g></g><g fill="#272727" fill-opacity="1"><g transform="translate(207.357358, 128.950305)"><g><path d="M 1.78125 0 L 1.78125 -12.234375 L 9.21875 -12.234375 L 9.21875 -10.8125 L 3.328125 -10.8125 L 3.328125 -6.9375 L 8.78125 -6.9375 L 8.78125 -5.53125 L 3.328125 -5.53125 L 3.328125 -1.4375 L 9.40625 -1.4375 L 9.40625 0 Z M 1.78125 0 "/></g></g></g><g fill="#272727" fill-opacity="1"><g transform="translate(222.263998, 128.950305)"><g><path d="M 4.296875 0 L 0.328125 -12.234375 L 1.9375 -12.234375 L 3.640625 -6.953125 L 5.078125 -2.46875 L 8.6875 -12.234375 L 10.140625 -12.234375 L 13.765625 -2.453125 L 16.90625 -12.234375 L 18.515625 -12.234375 L 14.53125 0 L 13.09375 0 L 11.4375 -4.453125 L 9.40625 -9.90625 L 5.734375 0 Z M 4.296875 0 "/></g></g></g><g fill="#272727" fill-opacity="1"><g transform="translate(245.467544, 128.950305)"><g><path d="M 1.78125 0 L 1.78125 -12.234375 L 9.21875 -12.234375 L 9.21875 -10.8125 L 3.328125 -10.8125 L 3.328125 -6.9375 L 8.78125 -6.9375 L 8.78125 -5.53125 L 3.328125 -5.53125 L 3.328125 -1.4375 L 9.40625 -1.4375 L 9.40625 0 Z M 1.78125 0 "/></g></g></g><g fill="#272727" fill-opacity="1"><g transform="translate(260.374182, 128.950305)"><g><path d="M 1.78125 0 L 1.78125 -12.234375 L 3.328125 -12.234375 L 3.328125 -1.46875 L 9.265625 -1.46875 L 9.265625 0 Z M 1.78125 0 "/></g></g></g><g fill="#272727" fill-opacity="1"><g transform="translate(274.547198, 128.950305)"><g><path d="M 1.78125 0 L 1.78125 -12.234375 L 3.328125 -12.234375 L 3.328125 -1.46875 L 9.265625 -1.46875 L 9.265625 0 Z M 1.78125 0 "/></g></g></g><g fill="#272727" fill-opacity="1"><g transform="translate(288.720214, 128.950305)"><g><path d="M 1.78125 0 L 1.78125 -12.234375 L 9.21875 -12.234375 L 9.21875 -10.8125 L 3.328125 -10.8125 L 3.328125 -6.9375 L 8.78125 -6.9375 L 8.78125 -5.53125 L 3.328125 -5.53125 L 3.328125 -1.4375 L 9.40625 -1.4375 L 9.40625 0 Z M 1.78125 0 "/></g></g></g><g fill="#272727" fill-opacity="1"><g transform="translate(303.626852, 128.950305)"><g><path d="M 1.78125 0 L 1.78125 -12.234375 L 6.453125 -12.234375 C 7.304688 -12.234375 8.046875 -12.070312 8.671875 -11.75 C 9.296875 -11.4375 9.785156 -10.988281 10.140625 -10.40625 C 10.492188 -9.820312 10.671875 -9.125 10.671875 -8.3125 C 10.671875 -7.3125 10.410156 -6.488281 9.890625 -5.84375 C 9.378906 -5.195312 8.675781 -4.765625 7.78125 -4.546875 L 10.859375 0 L 9 0 L 6.015625 -4.390625 L 3.328125 -4.390625 L 3.328125 0 Z M 3.328125 -5.859375 L 6.28125 -5.859375 C 7.175781 -5.859375 7.867188 -6.070312 8.359375 -6.5 C 8.847656 -6.925781 9.09375 -7.53125 9.09375 -8.3125 C 9.09375 -9.082031 8.847656 -9.679688 8.359375 -10.109375 C 7.867188 -10.546875 7.175781 -10.765625 6.28125 -10.765625 L 3.328125 -10.765625 Z M 3.328125 -5.859375 "/></g></g></g><g fill="#272727" fill-opacity="1"><g transform="translate(319.895926, 128.950305)"><g><path d="M 4.890625 0 L 4.890625 -4.40625 L 0.296875 -12.234375 L 2.078125 -12.234375 L 4.078125 -8.8125 L 5.671875 -6.046875 L 9.265625 -12.234375 L 11 -12.234375 L 6.40625 -4.40625 L 6.40625 0 Z M 4.890625 0 "/></g></g></g></svg>